<svg width="47" height="46" viewBox="0 0 47 46" fill="none" xmlns="http://www.w3.org/2000/svg">
<path d="M28.3978 22.9988C28.3978 25.4299 26.4267 27.4009 23.9956 27.4009C21.5646 27.4009 19.5935 25.4299 19.5935 22.9988C19.5935 20.5678 21.5646 18.5967 23.9956 18.5967C26.4267 18.5967 28.3978 20.5678 28.3978 22.9988Z" fill="white"/>
<path d="M34.2901 15.2083C34.0781 14.6351 33.7412 14.1158 33.3019 13.69C32.876 13.2516 32.3567 12.9138 31.7836 12.7018C31.3182 12.5212 30.6192 12.3056 29.3318 12.2472C27.9393 12.1834 27.5216 12.1699 23.9954 12.1699C20.4692 12.1699 20.0514 12.1834 18.6589 12.2472C17.3715 12.3065 16.6717 12.5212 16.2072 12.7018C15.6331 12.9138 15.1147 13.2507 14.6889 13.69C14.2505 14.1158 13.9127 14.6351 13.7007 15.2083C13.5201 15.6737 13.3045 16.3726 13.2461 17.6609C13.1823 19.0534 13.1688 19.4712 13.1688 22.9974C13.1688 26.5236 13.1823 26.9413 13.2461 28.3338C13.3045 29.6212 13.5201 30.3202 13.7007 30.7856C13.9127 31.3596 14.2496 31.878 14.6889 32.3039C15.1147 32.7423 15.634 33.0801 16.2072 33.2921C16.6726 33.4736 17.3724 33.6883 18.6598 33.7467C20.0523 33.8105 20.4692 33.8239 23.9963 33.8239C27.5234 33.8239 27.9411 33.8105 29.3327 33.7467C30.6201 33.6883 31.32 33.4727 31.7854 33.2921C32.9371 32.8474 33.8472 31.9373 34.2919 30.7856C34.4725 30.3202 34.6881 29.6212 34.7465 28.3338C34.8103 26.9413 34.8237 26.5236 34.8237 22.9974C34.8237 19.4712 34.8103 19.0534 34.7465 17.6609C34.6863 16.3735 34.4716 15.6737 34.2901 15.2083ZM23.9954 29.7785C20.25 29.7785 17.2134 26.7428 17.2134 22.9974C17.2134 19.252 20.25 16.2163 23.9954 16.2163C27.7408 16.2163 30.7765 19.252 30.7765 22.9974C30.7765 26.7428 27.7408 29.7785 23.9954 29.7785ZM31.0451 17.5324C30.17 17.5324 29.4603 16.8227 29.4603 15.9477C29.4603 15.0726 30.17 14.3629 31.0451 14.3629C31.9201 14.3629 32.6299 15.0726 32.6299 15.9477C32.629 16.8227 31.9201 17.5324 31.0451 17.5324Z" fill="white"/>
<path d="M23.9956 0C11.2959 0 0.996704 10.2992 0.996704 22.9989C0.996704 35.6986 11.2959 45.9978 23.9956 45.9978C36.6953 45.9978 46.9945 35.6986 46.9945 22.9989C46.9945 10.2992 36.6953 0 23.9956 0ZM37.1221 28.4432C37.0583 29.8492 36.8346 30.8087 36.5085 31.6487C35.8221 33.423 34.4197 34.8254 32.6463 35.5109C31.8063 35.837 30.8468 36.0607 29.4408 36.1245C28.0321 36.19 27.5829 36.2053 23.9956 36.2053C20.4083 36.2053 19.9591 36.19 18.5504 36.1254C17.1454 36.0616 16.185 35.8379 15.345 35.5118C14.4636 35.1802 13.6659 34.6601 13.0055 33.9881C12.3335 33.3287 11.8143 32.53 11.4828 31.6487C11.1567 30.8087 10.933 29.8483 10.8692 28.4432C10.8045 27.0354 10.7892 26.5853 10.7892 22.9989C10.7892 19.4125 10.8045 18.9624 10.8692 17.5537C10.933 16.1477 11.1558 15.1883 11.4828 14.3483C11.8143 13.4669 12.3344 12.6683 13.0064 12.0088C13.6659 11.3368 14.4645 10.8167 15.3459 10.4852C16.1859 10.159 17.1463 9.93535 18.5513 9.87156C19.96 9.80778 20.4092 9.79161 23.9956 9.79161C27.582 9.79161 28.0321 9.80688 29.4408 9.87156C30.8468 9.93535 31.8063 10.159 32.6463 10.4843C33.5276 10.8158 34.3263 11.3359 34.9857 12.0079C35.6577 12.6674 36.1778 13.466 36.5085 14.3474C36.8355 15.1874 37.0583 16.1469 37.123 17.5528C37.1867 18.9615 37.202 19.4107 37.202 22.998C37.202 26.5853 37.1867 27.0354 37.1221 28.4432Z" fill="white"/>
</svg>
